Coordinates
version=1
nRows=7
nColumns=40
inDegrees=yes

Units are S.I. units (second, meters, Newtons, ...)
Angles are in degrees.

endheader
time	pelvis_tilt	pelvis_list	pelvis_rotation	pelvis_tx	pelvis_ty	pelvis_tz	hip_flexion_r	hip_adduction_r	hip_rotation_r	knee_angle_r	knee_angle_r_beta	ankle_angle_r	subtalar_angle_r	mtp_angle_r	hip_flexion_l	hip_adduction_l	hip_rotation_l	knee_angle_l	knee_angle_l_beta	ankle_angle_l	subtalar_angle_l	mtp_angle_l	lumbar_extension	lumbar_bending	lumbar_rotation	arm_flex_r	arm_add_r	arm_rot_r	elbow_flex_r	pro_sup_r	wrist_flex_r	wrist_dev_r	arm_flex_l	arm_add_l	arm_rot_l	elbow_flex_l	pro_sup_l	wrist_flex_l	wrist_dev_l
      1.54000000	     -1.43060612	      1.10633134	     -0.43433036	      0.39461151	      0.89023317	      1.43925578	     17.58196254	     -6.67892557	    -10.81525483	    -68.03738773	     -1.18747643	     -7.73370752	    -18.57884003	     22.72388236	     17.87862648	     -1.52916368	      9.77708521	    -30.30872206	     -0.52898699	      9.99163279	      9.89650379	      3.48221235	     -5.02633822	     -3.91817881	     -0.78245010	     -2.05903560	     -8.64264442	     -7.66368796	     26.83727841	     89.95437384	      0.00000000	      0.00000000	     -0.88917871	      9.26668707	     15.81340398	     30.48347831	     89.95437384	      0.00000000	      0.00000000
      1.55000000	     -1.33955591	      0.97871340	      0.11358589	      0.40373681	      0.89093857	      1.43776890	     18.66546899	     -6.70145389	    -11.28109908	    -68.18709442	     -1.19008931	     -5.90342791	    -18.50743597	     22.63668754	     17.01489191	     -1.59213881	      9.38417773	    -30.14213355	     -0.52607947	     10.38519545	      9.46504952	      3.23991863	     -5.21654903	     -3.76416265	     -1.45368410	     -2.29273429	     -8.50396062	     -7.65900973	     25.78595412	     89.95437384	      0.00000000	      0.00000000	     -0.35822144	      9.37588070	     16.21923731	     31.56240023	     89.95437384	      0.00000000	      0.00000000
      1.56000000	     -1.33720137	      0.80248988	      0.55397227	      0.41277472	      0.89149894	      1.43654409	     19.81097882	     -6.57406299	    -11.60691187	    -67.99461798	     -1.18672996	     -4.43654072	    -18.50191454	     22.44541103	     16.22309271	     -1.54869186	      9.11586591	    -29.87422216	     -0.52140354	     10.74602944	      9.13419922	      3.06023315	     -5.28254139	     -3.54166200	     -1.93382204	     -2.66808459	     -8.40575730	     -7.74032056	     24.97921029	     89.95437384	      0.00000000	      0.00000000	      0.25589886	      9.52081110	     16.40583948	     32.47987775	     89.95437384	      0.00000000	      0.00000000
      1.57000000	     -1.24717792	      0.65108321	      1.17438042	      0.42165040	      0.89212336	      1.43507449	     20.76699166	     -6.56645584	    -12.15531147	    -67.54496036	     -1.17888195	     -2.77259795	    -18.40911799	     22.44189870	     15.39445150	     -1.54210963	      8.75555178	    -29.68726318	     -0.51814049	     11.08748907	      8.67210773	      2.80676921	     -5.49081475	     -3.33798933	     -2.63316466	     -2.93247868	     -8.24637671	     -8.05608413	     24.09800116	     89.95437384	      0.00000000	      0.00000000	      0.82099600	      9.66622035	     16.65894402	     33.55098734	     89.95437384	      0.00000000	      0.00000000
      1.58000000	     -1.27421560	      0.49753395	      1.61686697	      0.43057791	      0.89252154	      1.43389711	     21.86545752	     -6.42753198	    -12.42855300	    -66.84822707	     -1.16672166	     -1.74398968	    -18.44484372	     22.29282401	     14.60579549	     -1.46930061	      8.57049795	    -29.35108448	     -0.51227306	     11.42813944	      8.23831511	      2.62292755	     -5.52537060	     -3.12657102	     -3.12599228	     -3.34226801	     -8.14131950	     -8.28399015	     23.45293218	     89.95437384	      0.00000000	      0.00000000	      1.42097927	      9.82729891	     16.72632833	     34.43687140	     89.95437384	      0.00000000	      0.00000000
      1.59000000	     -1.01179487	      0.23965747	      2.28774213	      0.43956093	      0.89331820	      1.43258736	     22.44303530	     -6.33047387	    -13.12592912	    -65.76019857	     -1.14773198	     -0.50292092	    -18.28065670	     22.47573318	     13.55719497	     -1.23256432	      8.43307607	    -29.05878017	     -0.50717139	     11.70523695	      7.46948091	      2.23161049	     -5.92056041	     -2.79129721	     -3.88795881	     -3.55323534	     -7.92372750	     -9.02117947	     22.64421186	     89.95437384	      0.00000000	      0.00000000	      1.93140503	      9.99491901	     16.92372516	     35.57928412	     89.95437384	      0.00000000	      0.00000000
      1.60000000	     -0.81157475	     -0.05563925	      2.65152391	      0.44882997	      0.89394566	      1.43194415	     23.10217055	     -5.98313191	    -13.40988838	    -64.44282904	     -1.12473955	      0.29391376	    -18.19813113	     22.88179970	     12.53484795	     -0.77239162	      8.80373050	    -28.78481047	     -0.50238972	     11.87095740	      6.26543012	      1.38263896	     -6.16217908	     -2.43838642	     -4.18201335	     -4.01742027	     -7.74975163	     -9.79091152	     22.11576040	     89.95437384	      0.00000000	      0.00000000	      2.53430052	     10.16499619	     16.91091211	     36.49709136	     89.95437384	      0.00000000	      0.00000000
